<?xml version="1.0" encoding="UTF-8"?>
<svg width="365px" height="200px" viewBox="0 0 365 200" version="1.1"
    xmlns="http://www.w3.org/2000/svg"
    xmlns:xlink="http://www.w3.org/1999/xlink">
    <!-- Generator: Sketch 58 (84663) - https://sketch.com -->
    <title>telkom-indonesia-seeklogo.com</title>
    <desc>Created with Sketch.</desc>
    <defs>
        <polygon id="path-1" points="0.205 0.803 148.999733 0.803 148.999733 141.168 0.205 141.168"></polygon>
    </defs>
    <g id="telkom-indonesia-seeklogo.com" stroke="none" stroke-width="1" fill="none" fill-rule="evenodd">
        <g id="Group-4" transform="translate(216.000000, 0.000000)">
            <mask id="mask-2" fill="white">
                <use xlink:href="#path-1"></use>
            </mask>
            <g id="Clip-2"></g>
            <path d="M44.701,65.074 C61.461,65.074 75.045,78.006 75.045,93.962 C75.045,109.919 61.461,122.851 44.701,122.851 C27.941,122.851 14.358,109.919 14.358,93.962 C14.358,78.006 27.941,65.074 44.701,65.074 Z M47.147,50.573 C21.22,50.573 0.205,70.836 0.205,95.855 C0.205,120.875 21.22,141.168 47.147,141.168 C73.077,141.168 94.091,120.875 94.091,95.855 C94.091,70.836 73.077,50.573 47.147,50.573 L47.147,50.573 Z" id="Fill-1" fill="#555552" mask="url(#mask-2)"></path>
            <path d="M44.707,65.075 C42.61,65.075 40.566,65.272 38.591,65.657 C36.615,66.042 34.67,66.558 32.854,67.289 L32.752,67.39 L32.824,67.58 C36.211,76.486 40.26,85.56 46.453,92.856 C52.685,100.198 60.715,106.042 69.316,110.516 L69.517,110.62 C69.642,110.454 69.748,110.294 69.866,110.125 C70.957,108.589 71.895,106.933 72.662,105.203 C73.431,103.476 74.034,101.668 74.438,99.787 C74.844,97.907 75.051,95.958 75.051,93.963 C75.051,91.968 74.844,90.02 74.438,88.139 C74.034,86.259 73.431,84.451 72.662,82.722 C71.895,80.995 70.957,79.338 69.866,77.801 C68.776,76.265 67.541,74.857 66.168,73.55 C64.796,72.243 63.298,71.035 61.683,69.997 C60.069,68.959 58.345,68.077 56.529,67.346 C54.715,66.616 52.797,66.042 50.821,65.657 C48.847,65.272 46.801,65.075 44.707,65.075 Z M78.571,0.805 C77.075,0.76 75.869,1.383 74.552,2.291 C72.937,3.402 71.539,5.204 70.708,6.979 C66.458,16.053 62.442,24.797 58.39,33.508 C57.393,35.649 56.245,38.044 54.516,39.653 C53.433,40.661 52.358,41.57 50.935,41.167 C49.462,40.75 48.97,40.048 48.46,38.605 C47.809,36.768 47.849,33.174 47.643,31.237 C47.244,27.452 47.742,23.561 46.771,19.879 C46.313,18.15 44.765,14.305 42.372,14.172 C38.715,13.968 36.076,19.552 34.51,22.675 C30.849,29.976 29.653,38.147 29.734,49.99 C29.743,51.253 29.836,53.776 29.836,53.776 C29.836,53.776 35.041,52.026 37.684,51.504 C39.213,51.203 40.767,50.96 42.344,50.805 C43.923,50.65 45.528,50.572 47.149,50.572 C48.77,50.572 50.376,50.65 51.953,50.805 C53.532,50.96 55.084,51.203 56.612,51.504 C59.67,52.107 62.628,52.979 65.436,54.125 C68.244,55.27 70.889,56.662 73.387,58.29 C75.884,59.917 78.224,61.774 80.347,63.822 C82.47,65.87 84.396,68.111 86.082,70.52 C87.77,72.929 89.206,75.528 90.393,78.237 C91.58,80.946 92.505,83.792 93.13,86.74 C93.442,88.214 93.698,89.703 93.858,91.225 C94.019,92.748 94.091,94.291 94.091,95.855 C94.091,97.419 94.019,98.962 93.858,100.485 C93.698,102.009 93.442,103.524 93.13,104.999 C92.505,107.949 91.58,110.792 90.393,113.503 C89.916,114.59 89.438,115.577 88.878,116.619 L89.432,116.734 C94.756,117.807 99.881,118.315 105.303,118.017 C113.725,117.551 122.518,116.987 129.938,112.978 C132.442,111.626 135.741,109.618 135.822,106.775 C135.895,104.19 133.286,102.264 131.074,100.922 C128.848,99.572 125.557,99.397 122.979,99.03 C119.145,98.481 115.85,98.975 111.769,98.505 C108.445,98.123 103.51,97.46 102.799,94.021 C102.121,90.744 106.168,87.913 108.565,85.576 C113.398,80.862 119.485,77.646 124.785,73.462 C130.899,68.633 136.771,64.258 142.314,58.784 C144.078,57.045 145.779,55.702 147.092,53.601 C148.025,52.106 149.146,49.765 148.984,48.01 C148.874,46.842 148.236,45.961 147.267,45.302 C145.689,44.232 143.985,44.357 142.082,44.37 C140.114,44.384 138.465,44.854 136.607,45.506 C131.496,47.3 126.676,49.872 121.814,52.262 C118.22,54.027 115.048,56.802 111.185,57.854 C108.865,58.483 105.505,60.042 103.992,58.173 C102.518,56.355 104.838,53.548 105.739,51.389 C107.592,46.952 110.597,43.064 113.137,38.983 C115.983,34.408 119.323,30.157 121.93,25.442 C123.211,23.125 124.823,20.828 125.279,18.221 C125.607,16.347 125.663,14.228 124.785,12.542 C124.28,11.574 123.343,10.697 122.279,10.445 C120.357,9.99 118.23,10.838 116.427,11.639 C113.775,12.815 110.193,15.397 108.186,17.492 C101.362,24.614 95.847,30.878 89.374,37.498 C87.156,39.764 84.181,43.807 81.276,42.536 C79.267,41.656 79.684,38.336 79.938,36.188 C80.709,29.667 82.101,22.973 82.851,16.328 C83.204,13.194 83.876,9.783 83.607,6.893 C83.46,5.298 83.281,3.773 82.354,2.466 C81.697,1.538 80.364,1.039 79.24,0.865 C79.006,0.837 78.773,0.82 78.559,0.814 L78.571,0.805 L78.571,0.805 Z" id="Fill-3" fill="#C1242B" mask="url(#mask-2)"></path>
        </g>
        <path d="M304.876,116.619 C305.436,115.577 305.915,114.586 306.391,113.499 C307.578,110.788 308.503,107.945 309.129,104.995 C309.44,103.521 309.696,102.005 309.856,100.482 C310.018,98.959 310.089,97.415 310.089,95.851 C310.089,94.288 310.018,92.744 309.856,91.221 C309.696,89.698 309.44,88.211 309.129,86.736 C308.503,83.789 307.578,80.942 306.391,78.233 C305.202,75.524 303.768,72.925 302.081,70.516 C300.394,68.107 298.469,65.867 296.345,63.819 C294.222,61.77 291.882,59.913 289.385,58.286 C286.887,56.658 284.242,55.267 281.435,54.121 C278.626,52.976 275.668,52.103 272.61,51.5 C271.082,51.199 269.53,50.956 267.951,50.802 C266.374,50.646 264.768,50.568 263.147,50.568 C261.526,50.568 259.921,50.646 258.342,50.802 C256.763,50.956 255.211,51.199 253.682,51.5 C251.039,52.022 248.294,52.813 245.834,53.743 C246.133,57.438 247.17,63.126 248.758,67.39 L248.878,67.343 C250.693,66.612 252.609,66.039 254.585,65.654 C256.561,65.269 258.604,65.071 260.701,65.071 C262.796,65.071 264.84,65.269 266.815,65.654 C268.791,66.039 270.709,66.612 272.524,67.343 C274.339,68.074 276.064,68.954 277.678,69.993 C279.293,71.031 280.789,72.239 282.162,73.546 C283.536,74.852 284.771,76.26 285.861,77.797 C286.952,79.334 287.889,80.99 288.657,82.719 C289.425,84.446 290.028,86.255 290.433,88.134 C290.836,90.015 291.044,91.965 291.044,93.959 C291.044,95.954 290.836,97.902 290.433,99.783 C290.028,101.663 289.425,103.472 288.657,105.199 C287.889,106.928 286.952,108.583 285.861,110.121 C285.74,110.29 285.623,110.445 285.501,110.613 C291.898,113.559 298.868,115.392 304.876,116.619" id="Fill-5" fill="#FFFFFE"></path>
        <path d="M47.558,115.276 C53.487,115.276 56.198,119.483 56.198,123.196 L38.743,123.196 C38.743,119.599 41.798,115.276 47.557,115.276 L47.558,115.276 Z M128.955,115.219 C135.028,115.219 139.958,120.332 139.958,126.654 C139.958,132.976 135.028,138.118 128.955,138.118 C122.88,138.118 117.951,132.976 117.951,126.654 C117.951,120.332 122.88,115.219 128.955,115.219 Z M48.018,109.258 C37.607,109.258 30.996,117.09 30.996,126.74 C30.996,136.392 38.25,143.906 48.163,143.906 C55.318,143.906 58.126,142.67 61.209,139.587 C62.253,138.542 63.162,135.836 61.642,134.315 C60.437,133.11 58.144,133.564 57.234,134.229 C54.493,136.238 51.821,137.657 48.162,137.657 C42.997,137.657 39.064,133.981 38.83,129.649 L58.502,129.649 C60.769,129.649 61.735,129.046 62.535,128.44 C63.165,127.963 63.945,126.35 63.945,125.56 C63.945,116.982 57.866,109.256 48.018,109.256 L48.018,109.258 Z M189.093,109.229 C188.062,109.213 187.04,109.284 186.039,109.486 C184.204,109.859 182.421,110.568 180.798,111.504 C179.513,112.242 177.313,113.923 177.313,113.923 C177.313,113.923 175.047,110.739 170.803,109.602 C169.87,109.354 168.909,109.097 167.952,109.09 C166.204,109.075 164.389,109.231 162.738,109.804 C160.839,110.464 157.64,113.03 157.64,113.03 L157.64,112.8 C157.64,110.801 156.096,109.602 154.155,109.602 C151.769,109.602 150.67,111.204 150.67,113.203 L150.67,139.876 C150.67,141.873 152.215,143.476 154.155,143.476 C156.096,143.476 157.669,141.873 157.669,139.876 L157.669,122.823 C157.669,120.308 159.254,118.085 161.384,116.745 C162.304,116.169 163.85,115.929 164.927,115.795 C166.1,115.651 167.133,115.666 168.787,116.055 C170.812,116.612 173.021,119.065 173.021,122.795 L173.021,139.874 C173.021,141.873 174.565,143.476 176.506,143.476 C178.447,143.476 180.02,141.873 180.02,139.874 L180.02,121.989 C180.02,120.21 181.78,117.993 183.218,116.947 C184.508,116.008 186.086,115.68 187.682,115.651 C188.979,115.628 190.25,115.686 191.483,116.517 C192.41,117.139 193.268,118.121 193.789,119.108 C194.393,120.257 194.652,120.632 194.652,121.932 L194.681,122.132 L194.681,139.876 C194.681,141.873 196.226,143.476 198.165,143.476 C200.106,143.476 201.681,141.552 201.681,139.876 L201.681,120.881 C201.681,117.395 200.5,115.466 199.49,114.153 C198.476,112.898 197.127,111.909 195.746,111.072 C194.636,110.398 193.419,109.838 192.146,109.575 C191.148,109.367 190.124,109.245 189.093,109.229 Z M129.009,109.026 C119.098,109.026 111.065,116.859 111.065,126.51 C111.065,136.16 119.098,143.966 129.009,143.966 C138.921,143.966 146.954,136.16 146.954,126.51 C146.954,116.859 138.921,109.026 129.009,109.026 Z M2.995,98.858 C1.343,98.858 0,100.275 0,102.057 C0,103.837 1.343,105.282 2.995,105.282 L15.179,105.282 L15.179,140.134 C15.179,141.997 16.723,143.476 18.665,143.476 C20.605,143.476 22.178,141.997 22.178,140.134 L22.178,105.282 L34.823,105.282 C36.476,105.282 37.818,103.837 37.818,102.057 C37.818,100.275 36.476,98.858 34.823,98.858 L2.995,98.858 Z M85.054,96.238 C83.114,96.238 81.541,97.824 81.541,99.81 L81.541,139.902 C81.541,141.889 83.114,143.476 85.054,143.476 C86.996,143.476 88.54,141.889 88.54,139.902 L88.54,134.776 L93.955,129.592 L104.756,142.439 C105.785,143.778 108.325,143.693 109.509,142.641 C110.804,141.487 110.595,139.084 109.566,137.743 L99.14,124.639 L109.135,115.047 C110.712,113.47 110.351,111.357 109.019,110.207 C107.35,108.766 105.382,109.18 104.152,110.409 L88.54,125.127 L88.54,99.811 C88.54,97.824 86.996,96.239 85.055,96.239 L85.054,96.238 Z M71.432,96.238 C69.49,96.238 67.946,97.824 67.946,99.81 L67.946,139.902 C67.946,141.889 69.49,143.476 71.432,143.476 C73.372,143.476 74.945,141.889 74.945,139.902 L74.945,99.81 C74.945,97.824 73.372,96.238 71.432,96.238 L71.432,96.238 Z" id="Fill-6" fill="#151614"></path>
        <path d="M285.821,183.121 C287.707,183.017 289.717,183.263 291.583,183.554 C292.518,183.697 293.838,183.946 295.011,184.186 C295.02,184.354 295.184,187.162 294.665,188.478 C293.962,190.259 292.843,192.254 291.179,193.26 C289.371,194.353 286.899,194.592 284.785,194.556 C283.104,194.525 281.307,194.135 279.947,193.145 C278.684,192.224 277.942,190.985 277.814,189.428 C277.665,187.595 278.143,185.926 279.543,184.734 C281.178,183.341 283.679,183.239 285.821,183.121 Z M97.391,171.37 C103.465,171.37 108.394,176.481 108.394,182.804 C108.394,189.125 103.695,193.577 97.621,193.577 C91.547,193.577 86.849,189.125 86.849,182.804 C86.849,176.481 91.316,171.37 97.391,171.37 Z M136.793,171.255 C142.868,171.255 147.796,176.366 147.796,182.689 C147.796,189.01 142.868,194.152 136.793,194.152 C130.719,194.152 125.79,189.01 125.79,182.689 C125.79,176.366 130.718,171.255 136.793,171.255 Z M210.212,171.197 C216.143,171.197 218.854,175.373 218.854,179.089 L201.368,179.089 C201.368,175.488 204.452,171.197 210.212,171.197 Z M263.095,165.638 C261.249,165.638 259.782,167.1 259.782,168.92 L259.782,196.226 C259.782,198.048 261.249,199.51 263.095,199.51 C264.939,199.51 266.436,198.048 266.436,196.226 L266.436,168.92 C266.436,167.1 264.939,165.638 263.095,165.638 Z M175.648,165.407 C174.243,165.434 172.576,165.561 171.5,165.926 C169.372,166.649 166.028,168.978 166.028,168.978 L166.028,168.747 C166.028,167.583 165.664,165.523 162.773,165.523 C160.393,165.523 159.663,167.469 159.663,169.468 L159.663,196.141 C159.663,198.14 161.207,199.74 163.148,199.74 C165.088,199.74 166.661,198.14 166.661,196.141 L166.661,179.089 C166.661,176.572 168.247,174.35 170.377,173.012 C171.295,172.434 172.843,172.193 173.92,172.061 C175.093,171.916 176.125,171.931 177.779,172.319 C179.81,172.877 182.676,175.33 182.676,179.06 L182.676,196.141 C182.676,198.138 184.221,199.74 186.162,199.74 C188.102,199.74 189.675,198.138 189.675,196.141 L189.675,178.369 C189.675,174.467 188.563,171.865 187.025,169.872 C185.444,167.824 182.631,166.369 180.113,165.695 L179.911,165.667 C178.929,165.436 177.906,165.416 176.944,165.407 C176.565,165.405 176.117,165.398 175.648,165.407 Z M61.358,165.407 C59.953,165.434 58.287,165.561 57.21,165.926 C55.081,166.649 51.738,168.978 51.738,168.978 L51.738,168.747 C51.738,167.583 51.373,165.523 48.483,165.523 C46.103,165.523 45.372,167.469 45.372,169.468 L45.372,196.141 C45.372,198.14 46.917,199.74 48.857,199.74 C50.798,199.74 52.371,198.14 52.371,196.141 L52.371,179.089 C52.371,176.572 53.956,174.35 56.087,173.012 C57.006,172.434 58.552,172.193 59.629,172.061 C60.802,171.916 61.835,171.931 63.489,172.319 C65.519,172.877 68.386,175.33 68.386,179.06 L68.386,196.141 C68.386,198.138 69.93,199.74 71.871,199.74 C73.812,199.74 75.384,198.138 75.384,196.141 L75.384,178.369 C75.384,174.467 74.273,171.865 72.735,169.872 C71.155,167.824 68.341,166.369 65.822,165.695 L65.621,165.667 C64.639,165.436 63.617,165.416 62.654,165.407 C62.275,165.405 61.827,165.398 61.358,165.407 Z M285.533,165.263 C283.208,165.232 280.825,165.45 278.62,166.184 C277.39,166.595 276.092,167.121 275.221,168.086 C274.556,168.823 273.883,169.841 274.04,170.822 C274.179,171.694 274.628,172.423 275.798,172.811 C277.903,173.504 279.332,172.191 282.189,171.428 C285.403,170.566 289.576,170.611 292.215,172.637 C294.028,174.028 294.703,178.44 294.778,179.002 C294.068,178.78 293.176,178.51 292.504,178.397 C290.82,178.115 289.107,178.073 287.404,178.081 C285.19,178.088 282.931,178.068 280.78,178.54 C278.665,179.007 276.45,179.456 274.79,180.846 C273.285,182.105 272.178,184.006 271.621,185.886 C270.971,188.079 271.037,191.058 271.909,193.174 C272.885,195.542 274.769,196.853 277.007,198.098 C279.155,199.293 281.75,199.823 284.208,199.798 C287.159,199.768 290.263,198.939 292.732,197.321 C293.672,196.706 294.836,194.93 294.836,194.93 L294.808,196.398 C294.757,198.161 296.304,199.683 298.147,199.683 C299.993,199.683 301.461,198.221 301.461,196.398 L301.461,187.499 C301.461,187.499 301.438,178.915 300.713,174.508 C300.374,172.453 298.813,170.339 297.342,168.862 C296.069,167.586 294.638,167.008 293.107,166.473 C290.694,165.629 288.089,165.295 285.533,165.263 Z M210.673,165.148 C200.264,165.148 193.623,172.98 193.623,182.632 C193.623,192.283 200.878,199.798 210.788,199.798 C217.944,199.798 220.753,198.562 223.835,195.478 C224.881,194.434 225.789,191.728 224.268,190.206 C223.063,189.002 220.771,189.453 219.86,190.12 C217.119,192.13 214.447,193.549 210.788,193.549 C205.624,193.549 201.691,189.871 201.457,185.54 L221.13,185.54 C223.396,185.54 224.361,184.938 225.162,184.33 C225.791,183.853 226.573,182.241 226.573,181.45 C226.573,172.871 220.521,165.148 210.673,165.148 Z M136.852,165.061 C126.94,165.061 118.907,172.893 118.907,182.546 C118.907,192.196 126.939,200 136.852,200 C146.762,200 154.796,192.196 154.796,182.546 C154.796,172.893 146.763,165.061 136.852,165.061 Z M241.086,165.032 C238.782,165.12 236.379,165.414 234.317,166.443 C232.638,167.281 231.091,168.576 230.083,170.158 C229.16,171.609 228.625,173.395 228.643,175.113 C228.661,176.844 229.211,178.645 230.198,180.067 C231.197,181.506 232.809,182.455 234.346,183.294 C236.436,184.433 238.851,184.835 241.086,185.655 C242.844,186.301 244.924,186.434 246.328,187.672 C247.137,188.386 247.824,189.444 247.854,190.523 C247.887,191.687 247.153,192.701 246.27,193.46 C245.229,194.355 243.435,194.412 242.064,194.44 C240.464,194.474 239.181,194.217 237.657,193.72 C236.651,193.392 235.792,192.934 234.835,192.481 C234.058,192.115 233.356,191.595 232.56,191.272 C231.786,190.958 230.955,190.396 230.141,190.581 C229.245,190.783 228.479,191.563 228.095,192.395 C227.771,193.104 227.926,193.599 228.21,194.325 C228.585,195.273 229.439,196.02 230.256,196.629 C231.494,197.554 233.299,198.311 234.777,198.762 C237.022,199.442 238.94,199.828 241.288,199.798 C243.701,199.766 246.106,199.619 248.374,198.79 C250.476,198.019 251.847,196.836 253.067,194.958 C254.169,193.264 254.572,191.62 254.45,189.601 C254.367,188.243 254.327,186.585 253.615,185.425 C252.813,184.117 251.508,182.998 250.216,182.171 C248.411,181.014 246.607,180.547 244.628,179.723 C243.074,179.074 241.466,178.519 239.934,177.821 C238.964,177.38 237.823,177.146 237.082,176.381 C236.498,175.78 235.981,174.942 236.017,174.106 C236.057,173.144 236.695,172.19 237.457,171.599 C238.448,170.829 239.829,170.618 241.086,170.591 C242.229,170.567 243.511,170.905 244.599,171.255 C245.557,171.561 246.391,172.185 247.335,172.522 C248.469,172.926 249.446,173.58 250.648,173.559 C251.661,173.54 252.957,173.416 253.529,172.579 C254.075,171.779 253.856,170.531 253.413,169.67 C252.907,168.684 251.77,167.882 250.821,167.309 C249.523,166.523 248.104,166.166 246.645,165.753 C244.848,165.243 242.953,164.96 241.086,165.032 Z M34.736,154.231 C32.891,154.231 31.424,155.807 31.424,157.773 L31.424,195.968 C31.424,197.936 32.891,199.51 34.736,199.51 C36.582,199.51 38.078,197.936 38.078,195.968 L38.078,157.773 C38.078,155.807 36.582,154.231 34.736,154.231 Z M111.698,152.618 C109.853,152.618 108.386,154.106 108.386,155.96 L108.386,170.591 C106.082,167.503 102.537,165.097 97.095,165.292 C87.189,165.645 79.956,172.203 79.956,182.659 C79.956,192.311 86.723,199.885 96.634,199.885 C102.33,199.885 106.005,197.215 108.386,193.98 L108.386,196.285 C108.386,198.136 109.853,199.625 111.698,199.625 C113.542,199.625 115.039,198.136 115.039,196.285 L115.039,155.96 C115.039,154.108 113.542,152.62 111.698,152.62 L111.698,152.618 L111.698,152.618 Z" id="Fill-7" fill="#151614"></path>
    </g>
</svg>
